<mxfile host="app.diagrams.net" agent="Mozilla/5.0 (X11; Linux x86_64) AppleWebKit/537.36 (KHTML, like Gecko) Chrome/140.0.0.0 Safari/537.36" version="28.2.8">
  <diagram name="Page-1" id="VPEnaLto8D38934cuoFv">
    <mxGraphModel dx="972" dy="472" grid="1" gridSize="10" guides="1" tooltips="1" connect="1" arrows="1" fold="1" page="1" pageScale="1" pageWidth="610" pageHeight="547" math="0" shadow="0">
      <root>
        <mxCell id="0" />
        <mxCell id="1" parent="0" />
        <mxCell id="IHqqOIQuSHo2wnOUIWF3-5" value="" style="rounded=0;whiteSpace=wrap;html=1;" parent="1" vertex="1">
          <mxGeometry x="110" y="7" width="400" height="520" as="geometry" />
        </mxCell>
        <mxCell id="IHqqOIQuSHo2wnOUIWF3-6" value="&lt;font style=&quot;font-size: 18px;&quot;&gt;RoyML Use Case Diagram&lt;/font&gt;" style="text;html=1;whiteSpace=wrap;strokeColor=none;fillColor=none;align=center;verticalAlign=middle;rounded=0;" parent="1" vertex="1">
          <mxGeometry x="182.5" y="7" width="255" height="30" as="geometry" />
        </mxCell>
        <mxCell id="IHqqOIQuSHo2wnOUIWF3-8" value="" style="endArrow=none;html=1;rounded=0;exitX=0.011;exitY=0.047;exitDx=0;exitDy=0;exitPerimeter=0;" parent="1" edge="1">
          <mxGeometry width="50" height="50" relative="1" as="geometry">
            <mxPoint x="109.99999999999986" y="38.45000000000006" as="sourcePoint" />
            <mxPoint x="510" y="37" as="targetPoint" />
            <Array as="points">
              <mxPoint x="310" y="37" />
            </Array>
          </mxGeometry>
        </mxCell>
        <mxCell id="IHqqOIQuSHo2wnOUIWF3-12" style="edgeStyle=orthogonalEdgeStyle;rounded=0;orthogonalLoop=1;jettySize=auto;html=1;" parent="1" source="IHqqOIQuSHo2wnOUIWF3-1" target="IHqqOIQuSHo2wnOUIWF3-9" edge="1">
          <mxGeometry relative="1" as="geometry" />
        </mxCell>
        <mxCell id="IHqqOIQuSHo2wnOUIWF3-1" value="Actor" style="shape=umlActor;verticalLabelPosition=bottom;verticalAlign=top;html=1;outlineConnect=0;" parent="1" vertex="1">
          <mxGeometry x="30" y="77" width="30" height="60" as="geometry" />
        </mxCell>
        <mxCell id="IHqqOIQuSHo2wnOUIWF3-15" style="edgeStyle=orthogonalEdgeStyle;rounded=0;orthogonalLoop=1;jettySize=auto;html=1;" parent="1" source="IHqqOIQuSHo2wnOUIWF3-9" target="IHqqOIQuSHo2wnOUIWF3-14" edge="1">
          <mxGeometry relative="1" as="geometry" />
        </mxCell>
        <mxCell id="IHqqOIQuSHo2wnOUIWF3-9" value="Run the compiler&lt;div&gt;with a file provided&lt;/div&gt;" style="ellipse;whiteSpace=wrap;html=1;" parent="1" vertex="1">
          <mxGeometry x="180" y="67" width="120" height="80" as="geometry" />
        </mxCell>
        <mxCell id="IHqqOIQuSHo2wnOUIWF3-20" style="edgeStyle=orthogonalEdgeStyle;rounded=0;orthogonalLoop=1;jettySize=auto;html=1;" parent="1" source="IHqqOIQuSHo2wnOUIWF3-14" target="IHqqOIQuSHo2wnOUIWF3-19" edge="1">
          <mxGeometry relative="1" as="geometry" />
        </mxCell>
        <mxCell id="IHqqOIQuSHo2wnOUIWF3-14" value="Lex and parse" style="ellipse;whiteSpace=wrap;html=1;" parent="1" vertex="1">
          <mxGeometry x="180" y="170" width="120" height="80" as="geometry" />
        </mxCell>
        <mxCell id="IHqqOIQuSHo2wnOUIWF3-22" style="edgeStyle=orthogonalEdgeStyle;rounded=0;orthogonalLoop=1;jettySize=auto;html=1;" parent="1" source="IHqqOIQuSHo2wnOUIWF3-19" target="IHqqOIQuSHo2wnOUIWF3-21" edge="1">
          <mxGeometry relative="1" as="geometry" />
        </mxCell>
        <mxCell id="IHqqOIQuSHo2wnOUIWF3-19" value="Type check the ast nodes" style="ellipse;whiteSpace=wrap;html=1;" parent="1" vertex="1">
          <mxGeometry x="180" y="280" width="120" height="80" as="geometry" />
        </mxCell>
        <mxCell id="IHqqOIQuSHo2wnOUIWF3-24" style="edgeStyle=orthogonalEdgeStyle;rounded=0;orthogonalLoop=1;jettySize=auto;html=1;" parent="1" source="IHqqOIQuSHo2wnOUIWF3-21" target="IHqqOIQuSHo2wnOUIWF3-23" edge="1">
          <mxGeometry relative="1" as="geometry" />
        </mxCell>
        <mxCell id="IHqqOIQuSHo2wnOUIWF3-21" value="Emit JS Code" style="ellipse;whiteSpace=wrap;html=1;" parent="1" vertex="1">
          <mxGeometry x="340" y="280" width="120" height="80" as="geometry" />
        </mxCell>
        <mxCell id="IHqqOIQuSHo2wnOUIWF3-23" value="Build a binary using&amp;nbsp;&lt;div&gt;QuickJS&lt;/div&gt;" style="ellipse;whiteSpace=wrap;html=1;" parent="1" vertex="1">
          <mxGeometry x="340" y="390" width="120" height="80" as="geometry" />
        </mxCell>
      </root>
    </mxGraphModel>
  </diagram>
</mxfile>
